<svg preserveAspectRatio="none" overflow="visible" style="display: block;" width="32" height="32" viewBox="0 0 32 32" fill="none" xmlns="http://www.w3.org/2000/svg">
<g id="add">
<rect x="0.5" y="0.5" width="31" height="31" rx="15.5" stroke="#686C55" style="stroke:#686C55;stroke:color(display-p3 0.4078 0.4235 0.3333);stroke-opacity:1;"/>
<path id="icon" d="M24.0001 16C23.9936 15.2985 23.711 14.6279 23.2134 14.1333L17.4934 8.4C17.2436 8.15166 16.9057 8.01228 16.5534 8.01228C16.2012 8.01228 15.8632 8.15166 15.6134 8.4C15.4885 8.52395 15.3893 8.67142 15.3216 8.8339C15.2539 8.99638 15.219 9.17065 15.219 9.34666C15.219 9.52268 15.2539 9.69695 15.3216 9.85943C15.3893 10.0219 15.4885 10.1694 15.6134 10.2933L20.0001 14.6667H6.66676C6.31314 14.6667 5.974 14.8071 5.72395 15.0572C5.47391 15.3072 5.33343 15.6464 5.33343 16C5.33343 16.3536 5.47391 16.6927 5.72395 16.9428C5.974 17.1928 6.31314 17.3333 6.66676 17.3333H20.0001L15.6134 21.72C15.3624 21.9693 15.2206 22.3081 15.2194 22.6619C15.2181 23.0158 15.3575 23.3556 15.6068 23.6066C15.8561 23.8577 16.1949 23.9995 16.5487 24.0007C16.9025 24.002 17.2424 23.8626 17.4934 23.6133L23.2134 17.88C23.7142 17.3822 23.9971 16.7061 24.0001 16V16Z" fill="#080B12" style="fill:#080B12;fill:color(display-p3 0.0314 0.0431 0.0706);fill-opacity:1;"/>
</g>
</svg>
